<?xml version="1.0" encoding="UTF-8"?>
<!DOCTYPE svg PUBLIC "-//W3C//DTD SVG 1.1//EN" "http://www.w3.org/Graphics/SVG/1.1/DTD/svg11.dtd">
<!-- Creator: CorelDRAW X6 -->
<svg xmlns="http://www.w3.org/2000/svg" xml:space="preserve" width="3.93055in" height="1.70833in" version="1.1" style="shape-rendering:geometricPrecision; text-rendering:geometricPrecision; image-rendering:optimizeQuality; fill-rule:evenodd; clip-rule:evenodd"
viewBox="0 0 3931 1708"
 xmlns:xlink="http://www.w3.org/1999/xlink">
 <defs>
  <style type="text/css">
   <![CDATA[
    .fil0 {fill:#FEFEFE;fill-rule:nonzero}
   ]]>
  </style>
 </defs>
 <g id="Layer_x0020_1">
  <metadata id="CorelCorpID_0Corel-Layer"/>
  <path class="fil0" d="M1610 1132l110 0 0 -573 -110 14 0 558zm2327 7l0 0c-72,64 -240,193 -597,299 -366,108 -812,156 -1248,156 -1106,0 -1821,-325 -1871,-754 -19,-161 109,-318 320,-451 -37,-28 -62,-72 -63,-122 -305,160 -478,371 -478,584 0,473 846,874 2103,857 437,-6 802,-69 1133,-176 393,-127 640,-312 700,-392zm-2080 -1153l-43 0c-236,1 -454,22 -651,57 0,0 -92,15 -191,40 0,0 -48,13 -77,21 -29,8 -69,20 -69,20 -28,9 -56,18 -83,27 27,27 45,64 46,106 22,-10 44,-19 67,-28 0,0 0,0 0,0 25,-9 94,-34 154,-54 74,-25 174,-56 174,-56 292,-81 616,-128 918,-125 -84,-5 -166,-8 -246,-8zm-389 429c19,0 39,7 52,17l31 -84c-29,-21 -61,-30 -102,-30 -28,0 -58,7 -83,28 -26,22 -54,66 -54,151 0,35 2,74 2,74l-37 0 0 95 37 0 0 466 111 0 0 -466 82 0 20 -95 -102 0 0 -86c0,-43 16,-69 43,-69zm-885 716l109 0 0 -676 -109 14 0 662zm1082 -784c-40,0 -73,32 -73,72 0,40 32,72 71,72 40,0 73,-32 73,-72 0,-40 -32,-72 -71,-72zm-499 784l0 -430c0,-38 -4,-75 -26,-103 -19,-24 -50,-40 -88,-40 -50,0 -101,29 -129,63 -1,-29 -11,-56 -13,-66l-102 27c6,31 14,69 14,136l0 413 108 0 0 -416c26,-32 58,-50 79,-50 14,0 28,3 35,14 9,12 12,30 12,73l0 379 108 0zm-532 -753c64,0 115,-52 115,-115 0,-64 -52,-115 -115,-115 -64,0 -115,52 -115,115 0,64 52,115 115,115zm1326 243c-1,-29 -11,-56 -13,-66l-102 27c6,31 14,69 14,136l0 413 108 0 0 -416c26,-32 58,-50 79,-50 14,0 28,3 36,14 9,12 12,30 12,73l0 379 108 0 0 -430c0,-38 -4,-75 -26,-103 -19,-24 -50,-40 -88,-40 -50,0 -101,29 -128,63zm1259 509l108 0 0 -416c26,-32 58,-50 79,-50 14,0 28,3 36,14 9,12 12,30 12,73l0 379 108 0 0 -430c0,-38 -4,-75 -26,-103 -19,-24 -50,-40 -88,-40 -50,0 -101,29 -129,63 -1,-29 -11,-56 -13,-66l-102 27c6,31 14,69 14,136l0 413zm-726 -485c28,0 45,15 56,41 9,22 12,60 12,104l-140 0c2,-100 23,-145 72,-145zm12 498c59,0 111,-23 159,-75l-43 -81c-34,35 -67,55 -106,55 -34,0 -61,-19 -78,-53 -13,-29 -16,-62 -16,-99l0 -11 250 0 0 -24c0,-123 -15,-192 -55,-243 -30,-39 -72,-60 -125,-60 -56,0 -102,24 -135,74 -35,53 -52,124 -52,220 0,186 73,296 200,296zm356 -300c0,-58 0,-190 73,-190 78,0 75,132 75,193 0,59 0,199 -72,199 -78,0 -76,-141 -76,-202zm73 301c147,0 194,-156 194,-299 0,-192 -81,-292 -193,-292 -142,0 -192,156 -191,295 1,137 40,297 190,297z"/>
 </g>
</svg>
